<?xml version="1.0" encoding="UTF-8" standalone="no"?>
<!-- Uploaded to: SVG Repo, www.svgrepo.com, Generator: SVG Repo Mixer Tools -->

<svg
   fill="#000000"
   width="800px"
   height="800px"
   viewBox="-1.66 0 740.824 740.824"
   version="1.1"
   id="svg1"
   sodipodi:docname="whatsapp.svg"
   inkscape:version="1.4 (86a8ad7, 2024-10-11)"
   xmlns:inkscape="http://www.inkscape.org/namespaces/inkscape"
   xmlns:sodipodi="http://sodipodi.sourceforge.net/DTD/sodipodi-0.dtd"
   xmlns="http://www.w3.org/2000/svg"
   xmlns:svg="http://www.w3.org/2000/svg">
  <defs
     id="defs1" />
  <sodipodi:namedview
     id="namedview1"
     pagecolor="#505050"
     bordercolor="#ffffff"
     borderopacity="1"
     inkscape:showpageshadow="0"
     inkscape:pageopacity="0"
     inkscape:pagecheckerboard="1"
     inkscape:deskcolor="#505050"
     inkscape:current-layer="svg1" />
  <path
     fill-rule="evenodd"
     clip-rule="evenodd"
     d="M 630.056,107.658 C 560.727,38.271 468.525,0.039 370.294,0 167.891,0 3.16,164.668 3.079,367.072 3.052,431.771 19.962,494.927 52.095,550.595 L 0,740.824 194.666,689.777 c 53.634,29.244 114.022,44.656 175.481,44.682 h 0.151 c 202.382,0 367.128,-164.689 367.21,-367.094 0.039,-98.088 -38.121,-190.32 -107.452,-259.707 m -259.758,564.8 h -0.125 C 315.407,672.437 261.69,657.729 214.83,629.929 l -11.146,-6.613 -115.516,30.293 30.834,-112.592 -7.258,-11.543 C 81.192,480.894 65.055,424.745 65.079,367.095 65.146,198.865 202.065,62 370.419,62 c 81.521,0.031 158.154,31.81 215.779,89.482 57.625,57.672 89.342,134.332 89.311,215.859 -0.07,168.242 -136.987,305.117 -305.211,305.117 M 537.713,443.944 c -9.176,-4.591 -54.286,-26.782 -62.697,-29.843 -8.41,-3.061 -14.526,-4.591 -20.644,4.592 -6.116,9.182 -23.7,29.843 -29.054,35.964 -5.351,6.122 -10.703,6.888 -19.879,2.296 -9.175,-4.591 -38.739,-14.276 -73.786,-45.526 -27.275,-24.32 -45.691,-54.36 -51.043,-63.542 -5.352,-9.183 -0.569,-14.148 4.024,-18.72 4.127,-4.11 9.175,-10.713 13.763,-16.07 4.587,-5.356 6.116,-9.182 9.174,-15.303 3.059,-6.122 1.53,-11.479 -0.764,-16.07 -2.294,-4.591 -20.643,-49.739 -28.29,-68.104 -7.447,-17.886 -15.012,-15.466 -20.644,-15.746 -5.346,-0.266 -11.469,-0.323 -17.585,-0.323 -6.117,0 -16.057,2.296 -24.468,11.478 -8.41,9.183 -32.112,31.374 -32.112,76.521 0,45.147 32.877,88.763 37.465,94.885 4.587,6.122 64.699,98.771 156.741,138.502 21.891,9.45 38.982,15.093 52.307,19.323 21.981,6.979 41.983,5.994 57.793,3.633 17.628,-2.633 54.285,-22.19 61.932,-43.616 7.646,-21.426 7.646,-39.791 5.352,-43.617 -2.293,-3.826 -8.41,-6.122 -17.585,-10.714"
     id="path1"
     sodipodi:nodetypes="ccccccsscccscccccccscccccccsccccsccscsccccccc"
     style="fill:#e0e0e0;fill-opacity:1" />
</svg>
